<svg xmlns="http://www.w3.org/2000/svg" xmlns:xlink="http://www.w3.org/1999/xlink" width="500" zoomAndPan="magnify" viewBox="0 0 375 374.999991" height="500" preserveAspectRatio="xMidYMid meet" version="1.0"><defs><g/></defs><g fill="#ffffff" fill-opacity="1"><g transform="translate(75.860804, 170.134311)"><g><path d="M -0.71875 -5.3125 C -1.414062 -4.613281 -2.226562 -4.421875 -3.15625 -4.734375 C -3.851562 -4.953125 -4.3125 -5.363281 -4.53125 -5.96875 C -4.75 -6.582031 -4.769531 -7.457031 -4.59375 -8.59375 C -4.25 -10.519531 -3.648438 -12.816406 -2.796875 -15.484375 C -1.941406 -18.160156 -0.890625 -21.050781 0.359375 -24.15625 C 1.609375 -27.269531 3 -30.378906 4.53125 -33.484375 C 5.007812 -34.441406 5.488281 -35.414062 5.96875 -36.40625 C 6.457031 -37.394531 6.785156 -38.109375 6.953125 -38.546875 C 7.347656 -39.503906 7.742188 -40.15625 8.140625 -40.5 C 8.535156 -40.851562 9.039062 -41.03125 9.65625 -41.03125 C 11.40625 -41.03125 12.28125 -39.957031 12.28125 -37.8125 C 12.28125 -37.507812 12.242188 -36.960938 12.171875 -36.171875 C 12.109375 -35.390625 12.035156 -34.625 11.953125 -33.875 C 11.734375 -32.4375 11.535156 -30.914062 11.359375 -29.3125 C 11.179688 -27.71875 11.035156 -26.207031 10.921875 -24.78125 C 10.816406 -23.363281 10.753906 -22.203125 10.734375 -21.296875 C 10.710938 -20.398438 10.742188 -19.953125 10.828125 -19.953125 C 10.921875 -19.953125 11.175781 -20.257812 11.59375 -20.875 C 12.007812 -21.488281 12.5 -22.273438 13.0625 -23.234375 C 13.632812 -24.203125 14.203125 -25.210938 14.765625 -26.265625 C 15.078125 -26.828125 15.492188 -27.613281 16.015625 -28.625 C 16.546875 -29.632812 17.113281 -30.75 17.71875 -31.96875 C 18.332031 -33.195312 18.90625 -34.378906 19.4375 -35.515625 C 21.625 -39.984375 23.316406 -43.421875 24.515625 -45.828125 C 25.722656 -48.234375 26.609375 -49.9375 27.171875 -50.9375 C 27.742188 -51.945312 28.117188 -52.519531 28.296875 -52.65625 C 29.390625 -53.488281 30.535156 -53.660156 31.734375 -53.171875 C 32.941406 -52.691406 33.703125 -51.753906 34.015625 -50.359375 C 34.140625 -49.742188 34.140625 -48.976562 34.015625 -48.0625 C 33.960938 -47.664062 33.828125 -46.984375 33.609375 -46.015625 C 33.390625 -45.054688 33.140625 -43.992188 32.859375 -42.828125 C 32.578125 -41.671875 32.289062 -40.566406 32 -39.515625 C 31.71875 -38.472656 31.488281 -37.664062 31.3125 -37.09375 C 30.613281 -34.90625 29.847656 -32.210938 29.015625 -29.015625 C 28.179688 -25.828125 27.335938 -22.394531 26.484375 -18.71875 C 25.640625 -15.039062 24.84375 -11.382812 24.09375 -7.75 C 23.65625 -5.519531 23.304688 -3.769531 23.046875 -2.5 C 22.785156 -1.226562 22.566406 -0.1875 22.390625 0.625 C 22.210938 1.4375 22.015625 2.28125 21.796875 3.15625 C 21.617188 3.9375 21.429688 4.785156 21.234375 5.703125 C 21.035156 6.628906 20.875 7.332031 20.75 7.8125 C 20.4375 9.34375 20.101562 10.5 19.75 11.28125 C 19.40625 12.070312 19.015625 12.625 18.578125 12.9375 C 17.921875 13.375 17.265625 13.503906 16.609375 13.328125 C 15.953125 13.109375 15.445312 12.671875 15.09375 12.015625 C 14.925781 11.660156 14.828125 11.144531 14.796875 10.46875 C 14.773438 9.789062 14.832031 9.273438 14.96875 8.921875 C 15.101562 8.617188 15.265625 7.742188 15.453125 6.296875 C 15.648438 4.859375 15.90625 2.472656 16.21875 -0.859375 C 16.34375 -2.117188 16.484375 -3.328125 16.640625 -4.484375 C 16.796875 -5.648438 16.894531 -6.429688 16.9375 -6.828125 C 16.976562 -7.179688 17.039062 -7.757812 17.125 -8.5625 C 17.21875 -9.375 17.3125 -10.128906 17.40625 -10.828125 C 17.488281 -11.578125 17.628906 -12.582031 17.828125 -13.84375 C 18.023438 -15.113281 18.210938 -16.253906 18.390625 -17.265625 C 18.554688 -18.273438 18.691406 -19.148438 18.796875 -19.890625 C 18.910156 -20.640625 18.945312 -21.035156 18.90625 -21.078125 C 18.90625 -21.078125 18.804688 -20.898438 18.609375 -20.546875 C 18.410156 -20.203125 18.160156 -19.765625 17.859375 -19.234375 C 16.765625 -17.222656 15.625 -15.503906 14.4375 -14.078125 C 13.257812 -12.660156 12.191406 -11.734375 11.234375 -11.296875 C 9.867188 -10.722656 8.597656 -10.722656 7.421875 -11.296875 C 5.710938 -12.128906 4.679688 -13.96875 4.328125 -16.8125 C 4.285156 -17.15625 4.242188 -17.445312 4.203125 -17.6875 C 4.160156 -17.9375 4.117188 -18.0625 4.078125 -18.0625 C 4.023438 -18.0625 3.867188 -17.773438 3.609375 -17.203125 C 3.128906 -15.847656 2.644531 -14.46875 2.15625 -13.0625 C 1.675781 -11.664062 1.242188 -10.285156 0.859375 -8.921875 C 0.460938 -7.703125 0.15625 -6.847656 -0.0625 -6.359375 C -0.28125 -5.878906 -0.5 -5.53125 -0.71875 -5.3125 Z M -0.71875 -5.3125 "/></g></g></g><g fill="#ffffff" fill-opacity="1"><g transform="translate(104.291634, 170.134311)"><g><path d="M 8.140625 -24.75 C 7.835938 -23.914062 7.476562 -22.929688 7.0625 -21.796875 C 6.644531 -20.660156 6.304688 -19.71875 6.046875 -18.96875 C 5.210938 -16.78125 4.660156 -15.28125 4.390625 -14.46875 C 4.128906 -13.664062 4.066406 -13.285156 4.203125 -13.328125 C 4.285156 -13.367188 4.597656 -13.46875 5.140625 -13.625 C 5.691406 -13.78125 6.320312 -13.941406 7.03125 -14.109375 C 8.207031 -14.421875 9.023438 -14.648438 9.484375 -14.796875 C 9.941406 -14.953125 10.238281 -15.140625 10.375 -15.359375 C 10.507812 -15.578125 10.640625 -15.925781 10.765625 -16.40625 C 10.859375 -16.851562 10.988281 -17.425781 11.15625 -18.125 C 11.332031 -18.820312 11.59375 -19.859375 11.9375 -21.234375 C 12.289062 -22.617188 12.796875 -24.535156 13.453125 -26.984375 C 14.109375 -29.484375 14.6875 -31.78125 15.1875 -33.875 C 15.695312 -35.976562 16.039062 -37.644531 16.21875 -38.875 C 16.300781 -39.4375 16.394531 -39.96875 16.5 -40.46875 C 16.613281 -40.976562 16.695312 -41.296875 16.75 -41.421875 C 16.832031 -41.773438 16.765625 -41.875 16.546875 -41.71875 C 16.328125 -41.570312 15.910156 -41.101562 15.296875 -40.3125 C 14.640625 -39.519531 14.082031 -38.773438 13.625 -38.078125 C 13.164062 -37.378906 12.707031 -36.523438 12.25 -35.515625 C 11.789062 -34.515625 11.242188 -33.171875 10.609375 -31.484375 C 9.972656 -29.796875 9.148438 -27.550781 8.140625 -24.75 Z M -6.234375 -2.890625 C -6.273438 -2.890625 -6.394531 -2.84375 -6.59375 -2.75 C -6.789062 -2.664062 -7.046875 -2.582031 -7.359375 -2.5 C -8.796875 -1.96875 -9.757812 -2.140625 -10.25 -3.015625 C -11.070312 -4.640625 -9.40625 -6.71875 -5.25 -9.25 L -3.421875 -10.3125 L -2.421875 -12.671875 C -2.117188 -13.328125 -1.648438 -14.410156 -1.015625 -15.921875 C -0.378906 -17.429688 0.21875 -18.929688 0.78125 -20.421875 C 1.789062 -22.960938 2.664062 -25.109375 3.40625 -26.859375 C 4.15625 -28.609375 4.847656 -30.148438 5.484375 -31.484375 C 6.117188 -32.816406 6.742188 -34.097656 7.359375 -35.328125 C 8.835938 -38.210938 10.363281 -40.703125 11.9375 -42.796875 C 13.519531 -44.898438 14.878906 -46.257812 16.015625 -46.875 C 17.421875 -47.625 18.691406 -47.671875 19.828125 -47.015625 C 20.960938 -46.359375 21.6875 -45.15625 22 -43.40625 C 22.164062 -42.476562 22.140625 -41.128906 21.921875 -39.359375 C 21.703125 -37.585938 21.285156 -35.210938 20.671875 -32.234375 C 20.066406 -29.253906 19.195312 -25.488281 18.0625 -20.9375 C 17.75 -19.71875 17.484375 -18.65625 17.265625 -17.75 C 17.046875 -16.851562 16.9375 -16.363281 16.9375 -16.28125 C 16.894531 -16.101562 16.914062 -15.96875 17 -15.875 C 17.09375 -15.789062 17.359375 -15.707031 17.796875 -15.625 C 18.671875 -15.488281 19.109375 -14.941406 19.109375 -13.984375 C 19.109375 -13.023438 18.34375 -12.148438 16.8125 -11.359375 C 16.5 -11.179688 16.222656 -11.015625 15.984375 -10.859375 C 15.742188 -10.710938 15.601562 -10.617188 15.5625 -10.578125 C 15.519531 -10.523438 15.429688 -10.234375 15.296875 -9.703125 C 15.160156 -9.179688 14.984375 -8.570312 14.765625 -7.875 C 14.066406 -5.207031 13.429688 -3.179688 12.859375 -1.796875 C 12.296875 -0.421875 11.726562 0.4375 11.15625 0.78125 C 10.550781 1.132812 9.941406 1.210938 9.328125 1.015625 C 8.710938 0.816406 8.273438 0.410156 8.015625 -0.203125 C 7.878906 -0.460938 7.8125 -0.972656 7.8125 -1.734375 C 7.8125 -2.503906 7.851562 -3.347656 7.9375 -4.265625 C 8.03125 -5.179688 8.164062 -5.945312 8.34375 -6.5625 C 8.425781 -7 8.5 -7.359375 8.5625 -7.640625 C 8.632812 -7.929688 8.644531 -8.078125 8.59375 -8.078125 C 8.550781 -8.078125 8.171875 -7.96875 7.453125 -7.75 C 6.734375 -7.53125 5.867188 -7.242188 4.859375 -6.890625 C 3.765625 -6.546875 2.890625 -6.226562 2.234375 -5.9375 C 1.578125 -5.65625 1.203125 -5.472656 1.109375 -5.390625 C 1.066406 -5.335938 0.90625 -4.894531 0.625 -4.0625 C 0.34375 -3.238281 0.00390625 -2.28125 -0.390625 -1.1875 C -0.960938 0.476562 -1.410156 1.738281 -1.734375 2.59375 C -2.066406 3.445312 -2.332031 4.054688 -2.53125 4.421875 C -2.726562 4.796875 -2.957031 5.117188 -3.21875 5.390625 C -3.613281 5.734375 -4.082031 5.945312 -4.625 6.03125 C -5.175781 6.125 -5.648438 6.0625 -6.046875 5.84375 C -6.703125 5.488281 -7.082031 4.992188 -7.1875 4.359375 C -7.300781 3.734375 -7.203125 2.695312 -6.890625 1.25 C -6.628906 -0.0195312 -6.429688 -1.023438 -6.296875 -1.765625 C -6.171875 -2.515625 -6.148438 -2.890625 -6.234375 -2.890625 Z M -6.234375 -2.890625 "/></g></g></g><g fill="#ffffff" fill-opacity="1"><g transform="translate(124.055328, 170.134311)"><g><path d="M 23.578125 -44.640625 C 23.578125 -44.421875 23.53125 -44.179688 23.4375 -43.921875 C 23.394531 -43.796875 23.40625 -43.707031 23.46875 -43.65625 C 23.539062 -43.613281 23.726562 -43.613281 24.03125 -43.65625 C 24.207031 -43.707031 24.367188 -43.753906 24.515625 -43.796875 C 24.671875 -43.835938 24.75 -43.878906 24.75 -43.921875 C 24.789062 -43.960938 24.753906 -44.050781 24.640625 -44.1875 C 24.535156 -44.320312 24.398438 -44.429688 24.234375 -44.515625 C 23.960938 -44.734375 23.796875 -44.851562 23.734375 -44.875 C 23.671875 -44.894531 23.617188 -44.816406 23.578125 -44.640625 Z M 20.359375 -34.140625 C 20.085938 -33.347656 19.703125 -32.207031 19.203125 -30.71875 C 18.703125 -29.238281 18.164062 -27.644531 17.59375 -25.9375 C 17.03125 -24.226562 16.503906 -22.640625 16.015625 -21.171875 C 15.535156 -19.703125 15.164062 -18.597656 14.90625 -17.859375 C 14.207031 -15.535156 13.539062 -13.132812 12.90625 -10.65625 C 12.269531 -8.1875 11.742188 -5.910156 11.328125 -3.828125 C 10.910156 -1.753906 10.660156 -0.109375 10.578125 1.109375 C 10.523438 1.898438 10.507812 2.382812 10.53125 2.5625 C 10.5625 2.738281 10.6875 2.9375 10.90625 3.15625 C 10.988281 3.28125 11.082031 3.441406 11.1875 3.640625 C 11.300781 3.835938 11.378906 4.023438 11.421875 4.203125 C 11.460938 4.554688 11.332031 5.070312 11.03125 5.75 C 10.726562 6.425781 10.398438 6.9375 10.046875 7.28125 C 9.734375 7.550781 9.328125 7.738281 8.828125 7.84375 C 8.328125 7.957031 7.878906 7.945312 7.484375 7.8125 C 7.085938 7.726562 6.703125 7.476562 6.328125 7.0625 C 5.960938 6.644531 5.671875 6.21875 5.453125 5.78125 C 5.234375 5.25 5.046875 4.257812 4.890625 2.8125 C 4.734375 1.375 4.613281 -0.21875 4.53125 -1.96875 C 4.488281 -4.769531 4.539062 -7.207031 4.6875 -9.28125 C 4.84375 -11.363281 5.140625 -13.566406 5.578125 -15.890625 C 6.015625 -17.941406 6.472656 -19.8125 6.953125 -21.5 C 7.441406 -23.1875 8.097656 -25.253906 8.921875 -27.703125 C 9.273438 -28.710938 9.582031 -29.578125 9.84375 -30.296875 C 10.113281 -31.023438 10.25 -31.410156 10.25 -31.453125 C 10.195312 -31.578125 10.0625 -31.597656 9.84375 -31.515625 C 8.625 -31.078125 7.3125 -30.601562 5.90625 -30.09375 C 4.507812 -29.59375 3.566406 -29.234375 3.078125 -29.015625 C 2.640625 -28.835938 1.992188 -28.609375 1.140625 -28.328125 C 0.296875 -28.046875 -0.582031 -27.757812 -1.5 -27.46875 C -2.425781 -27.1875 -3.257812 -26.945312 -4 -26.75 C -4.75 -26.550781 -5.253906 -26.429688 -5.515625 -26.390625 C -6.390625 -26.304688 -7.132812 -26.457031 -7.75 -26.84375 C -8.363281 -27.238281 -8.710938 -27.8125 -8.796875 -28.5625 C -8.878906 -29.519531 -8.5625 -30.335938 -7.84375 -31.015625 C -7.125 -31.703125 -5.648438 -32.546875 -3.421875 -33.546875 C -2.890625 -33.765625 -2.078125 -34.101562 -0.984375 -34.5625 C 0.109375 -35.019531 1.332031 -35.507812 2.6875 -36.03125 C 4.050781 -36.5625 5.410156 -37.085938 6.765625 -37.609375 C 8.117188 -38.140625 9.300781 -38.582031 10.3125 -38.9375 L 13.859375 -40.1875 L 14.703125 -41.890625 C 14.921875 -42.367188 15.179688 -42.914062 15.484375 -43.53125 C 15.796875 -44.144531 16.039062 -44.648438 16.21875 -45.046875 C 16.957031 -46.660156 17.675781 -48.09375 18.375 -49.34375 C 19.082031 -50.59375 19.585938 -51.347656 19.890625 -51.609375 C 21.421875 -52.878906 22.734375 -52.96875 23.828125 -51.875 C 24.097656 -51.601562 24.285156 -51.316406 24.390625 -51.015625 C 24.503906 -50.710938 24.644531 -50.117188 24.8125 -49.234375 C 25.03125 -48.191406 25.257812 -47.394531 25.5 -46.84375 C 25.75 -46.300781 26.15625 -45.722656 26.71875 -45.109375 C 26.9375 -44.890625 27.097656 -44.769531 27.203125 -44.75 C 27.316406 -44.726562 27.53125 -44.738281 27.84375 -44.78125 C 28.0625 -44.863281 28.628906 -45.046875 29.546875 -45.328125 C 30.460938 -45.617188 31.46875 -45.914062 32.5625 -46.21875 C 34.351562 -46.75 35.726562 -47.109375 36.6875 -47.296875 C 37.65625 -47.492188 38.390625 -47.5625 38.890625 -47.5 C 39.398438 -47.4375 39.894531 -47.25 40.375 -46.9375 C 41.207031 -46.414062 41.554688 -45.640625 41.421875 -44.609375 C 41.296875 -43.585938 40.773438 -42.832031 39.859375 -42.34375 C 39.722656 -42.300781 39.21875 -42.113281 38.34375 -41.78125 C 37.46875 -41.457031 36.382812 -41.054688 35.09375 -40.578125 C 33.800781 -40.097656 32.441406 -39.601562 31.015625 -39.09375 C 29.597656 -38.59375 28.234375 -38.101562 26.921875 -37.625 C 26.222656 -37.40625 25.445312 -37.140625 24.59375 -36.828125 C 23.738281 -36.523438 23.066406 -36.265625 22.578125 -36.046875 L 20.8125 -35.453125 Z M 20.359375 -34.140625 "/></g></g></g><g fill="#ffffff" fill-opacity="1"><g transform="translate(148.54638, 170.134311)"><g><path d="M -13.0625 -9.65625 C -12.882812 -10.53125 -12.507812 -11.238281 -11.9375 -11.78125 C -11.375 -12.332031 -10.347656 -12.957031 -8.859375 -13.65625 C -8.242188 -13.957031 -7.695312 -14.207031 -7.21875 -14.40625 C -6.738281 -14.601562 -6.179688 -14.832031 -5.546875 -15.09375 C -4.910156 -15.363281 -4.066406 -15.679688 -3.015625 -16.046875 C -1.960938 -16.421875 -0.585938 -16.914062 1.109375 -17.53125 C 2.515625 -18.007812 3.742188 -18.4375 4.796875 -18.8125 C 5.847656 -19.1875 6.394531 -19.394531 6.4375 -19.4375 C 6.476562 -19.476562 6.570312 -19.769531 6.71875 -20.3125 C 6.875 -20.863281 7.039062 -21.488281 7.21875 -22.1875 C 7.476562 -23.238281 7.859375 -24.550781 8.359375 -26.125 C 8.867188 -27.707031 9.382812 -29.285156 9.90625 -30.859375 C 10.4375 -32.429688 10.898438 -33.742188 11.296875 -34.796875 C 11.734375 -35.847656 12.210938 -36.929688 12.734375 -38.046875 C 13.265625 -39.160156 13.78125 -40.144531 14.28125 -41 C 14.78125 -41.851562 15.160156 -42.429688 15.421875 -42.734375 C 15.773438 -43.085938 16.039062 -43.296875 16.21875 -43.359375 C 16.394531 -43.429688 16.703125 -43.46875 17.140625 -43.46875 C 17.753906 -43.46875 18.253906 -43.269531 18.640625 -42.875 C 18.953125 -42.5625 19.160156 -42.238281 19.265625 -41.90625 C 19.378906 -41.582031 19.359375 -40.992188 19.203125 -40.140625 C 19.046875 -39.296875 18.726562 -37.972656 18.25 -36.171875 C 17.769531 -34.378906 17.070312 -31.863281 16.15625 -28.625 C 15.84375 -27.445312 15.53125 -26.332031 15.21875 -25.28125 C 14.914062 -24.226562 14.722656 -23.523438 14.640625 -23.171875 C 14.421875 -22.390625 14.351562 -21.953125 14.4375 -21.859375 C 14.488281 -21.859375 14.6875 -21.898438 15.03125 -21.984375 C 15.382812 -22.078125 15.800781 -22.191406 16.28125 -22.328125 C 16.757812 -22.492188 17.378906 -22.675781 18.140625 -22.875 C 18.910156 -23.070312 19.601562 -23.238281 20.21875 -23.375 C 20.832031 -23.550781 21.378906 -23.722656 21.859375 -23.890625 C 22.335938 -24.066406 22.625 -24.179688 22.71875 -24.234375 C 22.800781 -24.316406 22.953125 -24.628906 23.171875 -25.171875 C 23.390625 -25.722656 23.585938 -26.328125 23.765625 -26.984375 C 24.640625 -29.828125 25.6875 -32.648438 26.90625 -35.453125 C 28.132812 -38.253906 29.34375 -40.597656 30.53125 -42.484375 C 31.226562 -43.617188 31.804688 -44.457031 32.265625 -45 C 32.722656 -45.550781 33.21875 -45.976562 33.75 -46.28125 C 34.800781 -46.894531 35.835938 -46.984375 36.859375 -46.546875 C 37.890625 -46.109375 38.453125 -45.320312 38.546875 -44.1875 C 38.585938 -43.832031 38.5625 -43.40625 38.46875 -42.90625 C 38.382812 -42.40625 38.164062 -41.5625 37.8125 -40.375 C 37.46875 -39.195312 36.898438 -37.378906 36.109375 -34.921875 C 35.410156 -32.609375 34.863281 -30.816406 34.46875 -29.546875 C 34.070312 -28.273438 33.796875 -27.398438 33.640625 -26.921875 C 33.492188 -26.441406 33.421875 -26.132812 33.421875 -26 C 33.421875 -25.914062 33.519531 -25.796875 33.71875 -25.640625 C 33.914062 -25.484375 34.125 -25.34375 34.34375 -25.21875 C 35.65625 -24.5625 36.3125 -23.441406 36.3125 -21.859375 C 36.3125 -19.890625 35 -18.40625 32.375 -17.40625 C 31.84375 -17.226562 31.457031 -17.050781 31.21875 -16.875 C 30.976562 -16.695312 30.78125 -16.378906 30.625 -15.921875 C 30.476562 -15.460938 30.269531 -14.640625 30 -13.453125 C 29.34375 -10.609375 28.675781 -7.960938 28 -5.515625 C 27.320312 -3.066406 26.726562 -1.007812 26.21875 0.65625 C 25.71875 2.320312 25.316406 3.394531 25.015625 3.875 C 24.835938 4.175781 24.519531 4.445312 24.0625 4.6875 C 23.601562 4.9375 23.15625 5.0625 22.71875 5.0625 C 22.40625 5.0625 22.019531 4.914062 21.5625 4.625 C 21.101562 4.34375 20.742188 4.003906 20.484375 3.609375 C 20.179688 3.128906 19.953125 2.351562 19.796875 1.28125 C 19.640625 0.207031 19.5625 -1.378906 19.5625 -3.484375 C 19.5625 -4.878906 19.59375 -6.101562 19.65625 -7.15625 C 19.726562 -8.207031 19.828125 -9.28125 19.953125 -10.375 C 20.085938 -11.207031 20.1875 -11.925781 20.25 -12.53125 C 20.320312 -13.144531 20.332031 -13.453125 20.28125 -13.453125 C 20.238281 -13.503906 19.921875 -13.429688 19.328125 -13.234375 C 18.742188 -13.035156 18 -12.789062 17.09375 -12.5 C 16.195312 -12.21875 15.3125 -11.921875 14.4375 -11.609375 C 13.5625 -11.304688 12.816406 -11.035156 12.203125 -10.796875 C 11.597656 -10.554688 11.273438 -10.414062 11.234375 -10.375 C 11.179688 -10.332031 11.085938 -10.066406 10.953125 -9.578125 C 10.828125 -9.097656 10.675781 -8.550781 10.5 -7.9375 C 9.84375 -5.269531 9.238281 -3.050781 8.6875 -1.28125 C 8.144531 0.488281 7.566406 2.007812 6.953125 3.28125 C 5.640625 6 4.285156 6.722656 2.890625 5.453125 L 2.234375 4.921875 L 2.296875 2.953125 C 2.296875 1.722656 2.394531 0.398438 2.59375 -1.015625 C 2.789062 -2.441406 3.128906 -4.335938 3.609375 -6.703125 C 3.703125 -7.046875 3.769531 -7.359375 3.8125 -7.640625 C 3.851562 -7.929688 3.851562 -8.097656 3.8125 -8.140625 C 3.769531 -8.179688 3.550781 -8.144531 3.15625 -8.03125 C 2.757812 -7.925781 2.320312 -7.785156 1.84375 -7.609375 C 1.3125 -7.441406 0.6875 -7.257812 -0.03125 -7.0625 C -0.75 -6.863281 -1.351562 -6.675781 -1.84375 -6.5 C -2.894531 -6.195312 -3.515625 -5.988281 -3.703125 -5.875 C -3.898438 -5.769531 -3.867188 -5.648438 -3.609375 -5.515625 C -3.347656 -5.335938 -3.21875 -5.128906 -3.21875 -4.890625 C -3.21875 -4.648438 -3.328125 -4.53125 -3.546875 -4.53125 C -3.804688 -4.53125 -4.132812 -4.679688 -4.53125 -4.984375 C -4.789062 -5.203125 -5.039062 -5.332031 -5.28125 -5.375 C -5.519531 -5.425781 -6.210938 -5.40625 -7.359375 -5.3125 C -8.316406 -5.269531 -9.003906 -5.257812 -9.421875 -5.28125 C -9.835938 -5.300781 -10.222656 -5.398438 -10.578125 -5.578125 C -11.398438 -5.890625 -12.0625 -6.445312 -12.5625 -7.25 C -13.070312 -8.0625 -13.238281 -8.863281 -13.0625 -9.65625 Z M -13.0625 -9.65625 "/></g></g></g><g fill="#ffffff" fill-opacity="1"><g transform="translate(183.87152, 170.134311)"><g><path d="M 16.609375 -15.75 C 15.296875 -13.476562 14.15625 -11.660156 13.1875 -10.296875 C 12.226562 -8.941406 11.140625 -7.609375 9.921875 -6.296875 C 4.921875 -0.828125 0.914062 0.328125 -2.09375 -2.828125 C -2.75 -3.523438 -3.195312 -4.253906 -3.4375 -5.015625 C -3.6875 -5.785156 -3.851562 -6.847656 -3.9375 -8.203125 C -3.976562 -9.734375 -3.859375 -11.332031 -3.578125 -13 C -3.296875 -14.664062 -2.8125 -16.566406 -2.125 -18.703125 C -1.445312 -20.847656 -0.539062 -23.367188 0.59375 -26.265625 C 1.289062 -27.972656 2.054688 -29.734375 2.890625 -31.546875 C 3.722656 -33.359375 4.398438 -34.703125 4.921875 -35.578125 C 6.328125 -37.816406 7.617188 -38.71875 8.796875 -38.28125 C 9.097656 -38.144531 9.390625 -37.898438 9.671875 -37.546875 C 9.960938 -37.203125 10.109375 -36.878906 10.109375 -36.578125 C 10.109375 -36.523438 9.953125 -36.082031 9.640625 -35.25 C 9.335938 -34.425781 8.96875 -33.46875 8.53125 -32.375 C 3.976562 -20.945312 1.703125 -13.195312 1.703125 -9.125 C 1.703125 -8.550781 1.722656 -8.023438 1.765625 -7.546875 C 1.816406 -7.066406 1.863281 -6.785156 1.90625 -6.703125 C 2.207031 -6.265625 3.101562 -6.703125 4.59375 -8.015625 C 5.820312 -8.972656 7.035156 -10.195312 8.234375 -11.6875 C 9.441406 -13.175781 10.765625 -15.101562 12.203125 -17.46875 C 13.648438 -19.832031 15.316406 -22.765625 17.203125 -26.265625 C 18.867188 -29.285156 20.191406 -31.691406 21.171875 -33.484375 C 22.160156 -35.273438 22.984375 -36.71875 23.640625 -37.8125 C 23.859375 -38.164062 24.207031 -38.820312 24.6875 -39.78125 C 25.164062 -40.75 25.644531 -41.78125 26.125 -42.875 C 26.832031 -44.40625 27.414062 -45.570312 27.875 -46.375 C 28.332031 -47.1875 28.769531 -47.78125 29.1875 -48.15625 C 29.601562 -48.53125 30.09375 -48.78125 30.65625 -48.90625 C 31.144531 -49.082031 31.5 -49.171875 31.71875 -49.171875 C 31.9375 -49.171875 32.265625 -49.082031 32.703125 -48.90625 C 33.304688 -48.738281 33.835938 -48.421875 34.296875 -47.953125 C 34.765625 -47.492188 35.082031 -46.960938 35.25 -46.359375 C 35.382812 -46.003906 35.441406 -45.570312 35.421875 -45.0625 C 35.398438 -44.5625 35.253906 -43.84375 34.984375 -42.90625 C 34.722656 -41.96875 34.316406 -40.644531 33.765625 -38.9375 C 33.222656 -37.226562 32.492188 -34.972656 31.578125 -32.171875 C 31.359375 -31.472656 31.007812 -30.367188 30.53125 -28.859375 C 30.050781 -27.347656 29.59375 -25.890625 29.15625 -24.484375 C 28.71875 -23.085938 28.300781 -21.742188 27.90625 -20.453125 C 27.507812 -19.160156 27.242188 -18.316406 27.109375 -17.921875 C 26.984375 -17.578125 26.773438 -16.976562 26.484375 -16.125 C 26.203125 -15.269531 25.929688 -14.425781 25.671875 -13.59375 C 25.410156 -12.757812 25.050781 -11.660156 24.59375 -10.296875 C 24.132812 -8.941406 23.707031 -7.742188 23.3125 -6.703125 C 22.914062 -5.648438 22.5 -4.507812 22.0625 -3.28125 C 21.625 -2.050781 21.296875 -1.132812 21.078125 -0.53125 C 20.859375 0.0820312 20.613281 0.671875 20.34375 1.234375 C 20.082031 1.804688 19.910156 2.160156 19.828125 2.296875 C 19.390625 2.910156 18.820312 3.304688 18.125 3.484375 C 17.425781 3.660156 16.769531 3.570312 16.15625 3.21875 C 15.1875 2.738281 14.722656 1.644531 14.765625 -0.0625 C 14.765625 -0.5 14.863281 -1.351562 15.0625 -2.625 C 15.257812 -3.894531 15.488281 -5.328125 15.75 -6.921875 C 16.019531 -8.523438 16.296875 -10.066406 16.578125 -11.546875 C 16.859375 -13.035156 17.085938 -14.195312 17.265625 -15.03125 C 17.441406 -15.726562 17.582031 -16.316406 17.6875 -16.796875 C 17.800781 -17.285156 17.835938 -17.53125 17.796875 -17.53125 C 17.753906 -17.53125 17.625 -17.351562 17.40625 -17 C 17.1875 -16.65625 16.921875 -16.238281 16.609375 -15.75 Z M 16.609375 -15.75 "/></g></g></g><g fill="#ffffff" fill-opacity="1"><g transform="translate(214.863091, 170.134311)"><g><path d="M -6.109375 3.484375 C -6.847656 0.640625 -6.609375 -3.234375 -5.390625 -8.140625 C -4.734375 -10.898438 -4.007812 -12.609375 -3.21875 -13.265625 C -2.820312 -13.566406 -2.359375 -13.71875 -1.828125 -13.71875 C -1.304688 -13.71875 -0.894531 -13.566406 -0.59375 -13.265625 C -0.28125 -13.003906 -0.0625 -12.675781 0.0625 -12.28125 C 0.195312 -11.882812 0.265625 -11.269531 0.265625 -10.4375 C 0.265625 -9.601562 0.21875 -8.378906 0.125 -6.765625 C 0.0820312 -5.140625 0.0625 -3.878906 0.0625 -2.984375 C 0.0625 -2.085938 0.0820312 -1.332031 0.125 -0.71875 C 0.394531 1.25 0.679688 2.234375 0.984375 2.234375 C 1.285156 2.234375 1.851562 1.9375 2.6875 1.34375 C 3.519531 0.75 4.332031 0.0390625 5.125 -0.78125 C 9.9375 -5.601562 13.851562 -12.914062 16.875 -22.71875 C 17.351562 -24.164062 17.8125 -25.753906 18.25 -27.484375 C 18.6875 -29.210938 19.066406 -30.84375 19.390625 -32.375 C 19.722656 -33.90625 19.9375 -35.0625 20.03125 -35.84375 C 20.113281 -36.457031 20.144531 -36.828125 20.125 -36.953125 C 20.101562 -37.085938 19.984375 -37.113281 19.765625 -37.03125 C 19.671875 -36.988281 19.375 -36.867188 18.875 -36.671875 C 18.375 -36.472656 17.816406 -36.265625 17.203125 -36.046875 C 16.628906 -35.828125 15.859375 -35.53125 14.890625 -35.15625 C 13.929688 -34.78125 13.082031 -34.441406 12.34375 -34.140625 C 10.019531 -33.265625 8.171875 -32.679688 6.796875 -32.390625 C 5.421875 -32.109375 4.226562 -32.101562 3.21875 -32.375 C 1.03125 -32.9375 -0.0625 -34.179688 -0.0625 -36.109375 C -0.0625 -37.078125 0.226562 -37.863281 0.8125 -38.46875 C 1.40625 -39.082031 2.445312 -39.65625 3.9375 -40.1875 C 4.25 -40.3125 4.925781 -40.601562 5.96875 -41.0625 C 7.019531 -41.519531 8.160156 -42.035156 9.390625 -42.609375 C 10.835938 -43.304688 12.03125 -43.863281 12.96875 -44.28125 C 13.90625 -44.695312 14.832031 -45.078125 15.75 -45.421875 C 16.675781 -45.773438 17.773438 -46.171875 19.046875 -46.609375 C 19.609375 -46.828125 20.117188 -47.035156 20.578125 -47.234375 C 21.035156 -47.429688 21.289062 -47.550781 21.34375 -47.59375 C 21.507812 -47.863281 21.769531 -48.171875 22.125 -48.515625 C 22.601562 -49.128906 23.210938 -49.515625 23.953125 -49.671875 C 24.703125 -49.828125 25.425781 -49.726562 26.125 -49.375 L 26.859375 -48.984375 L 29.15625 -49.578125 C 33.21875 -50.578125 36.3125 -51.007812 38.4375 -50.875 C 40.5625 -50.75 41.929688 -50.050781 42.546875 -48.78125 C 43.117188 -47.6875 42.960938 -46.460938 42.078125 -45.109375 C 41.691406 -44.410156 41.363281 -44.015625 41.09375 -43.921875 C 40.832031 -43.835938 40.503906 -43.804688 40.109375 -43.828125 C 39.722656 -43.847656 39.460938 -43.898438 39.328125 -43.984375 C 39.242188 -44.160156 38.457031 -43.96875 36.96875 -43.40625 C 36.394531 -43.132812 35.703125 -42.859375 34.890625 -42.578125 C 34.085938 -42.296875 33.441406 -42.066406 32.953125 -41.890625 C 32.472656 -41.710938 31.894531 -41.515625 31.21875 -41.296875 C 30.539062 -41.078125 29.984375 -40.878906 29.546875 -40.703125 L 27.96875 -40.109375 L 27.765625 -39.125 C 27.722656 -38.863281 27.65625 -38.484375 27.5625 -37.984375 C 27.476562 -37.484375 27.394531 -36.988281 27.3125 -36.5 C 27.050781 -35.28125 26.722656 -33.835938 26.328125 -32.171875 C 25.929688 -30.503906 25.484375 -28.773438 24.984375 -26.984375 C 24.484375 -25.191406 23.976562 -23.453125 23.46875 -21.765625 C 22.96875 -20.078125 22.476562 -18.597656 22 -17.328125 C 20.726562 -13.703125 19.46875 -10.550781 18.21875 -7.875 C 16.96875 -5.207031 15.675781 -2.878906 14.34375 -0.890625 C 13.007812 1.097656 11.535156 2.90625 9.921875 4.53125 C 8.078125 6.363281 6.242188 7.71875 4.421875 8.59375 C 2.609375 9.476562 0.957031 9.785156 -0.53125 9.515625 C -1.789062 9.296875 -2.925781 8.640625 -3.9375 7.546875 C -4.945312 6.453125 -5.671875 5.097656 -6.109375 3.484375 Z M -6.109375 3.484375 "/></g></g></g><g fill="#ffffff" fill-opacity="1"><g transform="translate(241.914908, 170.134311)"><g><path d="M 8.140625 -24.75 C 7.835938 -23.914062 7.476562 -22.929688 7.0625 -21.796875 C 6.644531 -20.660156 6.304688 -19.71875 6.046875 -18.96875 C 5.210938 -16.78125 4.660156 -15.28125 4.390625 -14.46875 C 4.128906 -13.664062 4.066406 -13.285156 4.203125 -13.328125 C 4.285156 -13.367188 4.597656 -13.46875 5.140625 -13.625 C 5.691406 -13.78125 6.320312 -13.941406 7.03125 -14.109375 C 8.207031 -14.421875 9.023438 -14.648438 9.484375 -14.796875 C 9.941406 -14.953125 10.238281 -15.140625 10.375 -15.359375 C 10.507812 -15.578125 10.640625 -15.925781 10.765625 -16.40625 C 10.859375 -16.851562 10.988281 -17.425781 11.15625 -18.125 C 11.332031 -18.820312 11.59375 -19.859375 11.9375 -21.234375 C 12.289062 -22.617188 12.796875 -24.535156 13.453125 -26.984375 C 14.109375 -29.484375 14.6875 -31.78125 15.1875 -33.875 C 15.695312 -35.976562 16.039062 -37.644531 16.21875 -38.875 C 16.300781 -39.4375 16.394531 -39.96875 16.5 -40.46875 C 16.613281 -40.976562 16.695312 -41.296875 16.75 -41.421875 C 16.832031 -41.773438 16.765625 -41.875 16.546875 -41.71875 C 16.328125 -41.570312 15.910156 -41.101562 15.296875 -40.3125 C 14.640625 -39.519531 14.082031 -38.773438 13.625 -38.078125 C 13.164062 -37.378906 12.707031 -36.523438 12.25 -35.515625 C 11.789062 -34.515625 11.242188 -33.171875 10.609375 -31.484375 C 9.972656 -29.796875 9.148438 -27.550781 8.140625 -24.75 Z M -6.234375 -2.890625 C -6.273438 -2.890625 -6.394531 -2.84375 -6.59375 -2.75 C -6.789062 -2.664062 -7.046875 -2.582031 -7.359375 -2.5 C -8.796875 -1.96875 -9.757812 -2.140625 -10.25 -3.015625 C -11.070312 -4.640625 -9.40625 -6.71875 -5.25 -9.25 L -3.421875 -10.3125 L -2.421875 -12.671875 C -2.117188 -13.328125 -1.648438 -14.410156 -1.015625 -15.921875 C -0.378906 -17.429688 0.21875 -18.929688 0.78125 -20.421875 C 1.789062 -22.960938 2.664062 -25.109375 3.40625 -26.859375 C 4.15625 -28.609375 4.847656 -30.148438 5.484375 -31.484375 C 6.117188 -32.816406 6.742188 -34.097656 7.359375 -35.328125 C 8.835938 -38.210938 10.363281 -40.703125 11.9375 -42.796875 C 13.519531 -44.898438 14.878906 -46.257812 16.015625 -46.875 C 17.421875 -47.625 18.691406 -47.671875 19.828125 -47.015625 C 20.960938 -46.359375 21.6875 -45.15625 22 -43.40625 C 22.164062 -42.476562 22.140625 -41.128906 21.921875 -39.359375 C 21.703125 -37.585938 21.285156 -35.210938 20.671875 -32.234375 C 20.066406 -29.253906 19.195312 -25.488281 18.0625 -20.9375 C 17.75 -19.71875 17.484375 -18.65625 17.265625 -17.75 C 17.046875 -16.851562 16.9375 -16.363281 16.9375 -16.28125 C 16.894531 -16.101562 16.914062 -15.96875 17 -15.875 C 17.09375 -15.789062 17.359375 -15.707031 17.796875 -15.625 C 18.671875 -15.488281 19.109375 -14.941406 19.109375 -13.984375 C 19.109375 -13.023438 18.34375 -12.148438 16.8125 -11.359375 C 16.5 -11.179688 16.222656 -11.015625 15.984375 -10.859375 C 15.742188 -10.710938 15.601562 -10.617188 15.5625 -10.578125 C 15.519531 -10.523438 15.429688 -10.234375 15.296875 -9.703125 C 15.160156 -9.179688 14.984375 -8.570312 14.765625 -7.875 C 14.066406 -5.207031 13.429688 -3.179688 12.859375 -1.796875 C 12.296875 -0.421875 11.726562 0.4375 11.15625 0.78125 C 10.550781 1.132812 9.941406 1.210938 9.328125 1.015625 C 8.710938 0.816406 8.273438 0.410156 8.015625 -0.203125 C 7.878906 -0.460938 7.8125 -0.972656 7.8125 -1.734375 C 7.8125 -2.503906 7.851562 -3.347656 7.9375 -4.265625 C 8.03125 -5.179688 8.164062 -5.945312 8.34375 -6.5625 C 8.425781 -7 8.5 -7.359375 8.5625 -7.640625 C 8.632812 -7.929688 8.644531 -8.078125 8.59375 -8.078125 C 8.550781 -8.078125 8.171875 -7.96875 7.453125 -7.75 C 6.734375 -7.53125 5.867188 -7.242188 4.859375 -6.890625 C 3.765625 -6.546875 2.890625 -6.226562 2.234375 -5.9375 C 1.578125 -5.65625 1.203125 -5.472656 1.109375 -5.390625 C 1.066406 -5.335938 0.90625 -4.894531 0.625 -4.0625 C 0.34375 -3.238281 0.00390625 -2.28125 -0.390625 -1.1875 C -0.960938 0.476562 -1.410156 1.738281 -1.734375 2.59375 C -2.066406 3.445312 -2.332031 4.054688 -2.53125 4.421875 C -2.726562 4.796875 -2.957031 5.117188 -3.21875 5.390625 C -3.613281 5.734375 -4.082031 5.945312 -4.625 6.03125 C -5.175781 6.125 -5.648438 6.0625 -6.046875 5.84375 C -6.703125 5.488281 -7.082031 4.992188 -7.1875 4.359375 C -7.300781 3.734375 -7.203125 2.695312 -6.890625 1.25 C -6.628906 -0.0195312 -6.429688 -1.023438 -6.296875 -1.765625 C -6.171875 -2.515625 -6.148438 -2.890625 -6.234375 -2.890625 Z M -6.234375 -2.890625 "/></g></g></g><g fill="#ffffff" fill-opacity="1"><g transform="translate(261.678602, 170.134311)"><g><path d="M 4.65625 -8.59375 C 4.21875 -5.3125 3.820312 -2.847656 3.46875 -1.203125 C 3.125 0.429688 2.722656 1.539062 2.265625 2.125 C 1.804688 2.71875 1.160156 3.101562 0.328125 3.28125 C -0.847656 3.5 -1.785156 3.191406 -2.484375 2.359375 C -3.191406 1.523438 -3.523438 0.300781 -3.484375 -1.3125 C -3.441406 -3.238281 -3.265625 -5.492188 -2.953125 -8.078125 C -2.648438 -10.660156 -2.234375 -13.425781 -1.703125 -16.375 C -1.179688 -19.332031 -0.59375 -22.300781 0.0625 -25.28125 C 0.71875 -28.257812 1.421875 -31.082031 2.171875 -33.75 C 2.648438 -35.320312 3.0625 -36.546875 3.40625 -37.421875 C 3.757812 -38.296875 4.132812 -39 4.53125 -39.53125 C 4.789062 -39.875 5 -40.242188 5.15625 -40.640625 C 5.3125 -41.035156 5.453125 -41.582031 5.578125 -42.28125 C 5.796875 -43.414062 6.035156 -44.242188 6.296875 -44.765625 C 6.566406 -45.296875 6.960938 -45.757812 7.484375 -46.15625 C 8.398438 -46.8125 9.347656 -46.953125 10.328125 -46.578125 C 11.316406 -46.210938 12.054688 -45.4375 12.546875 -44.25 C 12.710938 -43.90625 12.863281 -43.195312 13 -42.125 C 13.132812 -41.050781 13.3125 -39.222656 13.53125 -36.640625 C 13.96875 -32.210938 14.378906 -28.117188 14.765625 -24.359375 C 15.160156 -20.597656 15.519531 -17.4375 15.84375 -14.875 C 16.175781 -12.3125 16.429688 -10.570312 16.609375 -9.65625 C 16.785156 -8.945312 16.9375 -8.332031 17.0625 -7.8125 C 17.195312 -7.289062 17.285156 -7.03125 17.328125 -7.03125 C 17.421875 -7.070312 17.578125 -7.375 17.796875 -7.9375 C 18.015625 -8.507812 18.453125 -9.800781 19.109375 -11.8125 C 20.378906 -15.84375 21.425781 -19.5625 22.25 -22.96875 C 23.082031 -26.382812 23.71875 -29.691406 24.15625 -32.890625 C 24.46875 -35.078125 24.734375 -36.738281 24.953125 -37.875 C 25.171875 -39.019531 25.390625 -39.84375 25.609375 -40.34375 C 25.828125 -40.84375 26.085938 -41.203125 26.390625 -41.421875 C 27.265625 -42.035156 28.160156 -41.925781 29.078125 -41.09375 C 30.003906 -40.3125 30.289062 -39.503906 29.9375 -38.671875 C 29.851562 -38.492188 29.800781 -38.15625 29.78125 -37.65625 C 29.757812 -37.15625 29.789062 -36.378906 29.875 -35.328125 C 29.957031 -33.742188 29.976562 -32.296875 29.9375 -30.984375 C 29.894531 -29.671875 29.71875 -28.050781 29.40625 -26.125 C 29.019531 -23.195312 28.507812 -20.296875 27.875 -17.421875 C 27.238281 -14.554688 26.535156 -11.890625 25.765625 -9.421875 C 25.003906 -6.953125 24.226562 -4.816406 23.4375 -3.015625 C 22.644531 -1.222656 21.898438 0.0664062 21.203125 0.859375 C 20.367188 1.734375 19.394531 2.351562 18.28125 2.71875 C 17.164062 3.09375 16.128906 3.128906 15.171875 2.828125 C 14.640625 2.609375 14.066406 2.234375 13.453125 1.703125 C 12.847656 1.179688 12.347656 0.570312 11.953125 -0.125 C 11.734375 -0.519531 11.445312 -1.1875 11.09375 -2.125 C 10.75 -3.070312 10.398438 -4.144531 10.046875 -5.34375 C 9.691406 -6.550781 9.382812 -7.722656 9.125 -8.859375 C 8.945312 -9.691406 8.75 -10.71875 8.53125 -11.9375 C 8.3125 -13.164062 8.101562 -14.414062 7.90625 -15.6875 C 7.707031 -16.957031 7.539062 -18.09375 7.40625 -19.09375 C 7.28125 -20.101562 7.21875 -20.804688 7.21875 -21.203125 C 7.21875 -21.992188 7.15625 -22.390625 7.03125 -22.390625 C 6.851562 -22.390625 6.765625 -22.257812 6.765625 -22 C 6.585938 -21.070312 6.367188 -19.820312 6.109375 -18.25 C 5.847656 -16.675781 5.59375 -15.023438 5.34375 -13.296875 C 5.101562 -11.566406 4.875 -10 4.65625 -8.59375 Z M 4.65625 -8.59375 "/></g></g></g><g fill="#ffffff" fill-opacity="1"><g transform="translate(290.503383, 170.134311)"><g><path d="M 2.828125 -2.828125 C 3.128906 -1.773438 2.773438 -0.65625 1.765625 0.53125 C 1.066406 1.40625 0.335938 2.035156 -0.421875 2.421875 C -1.191406 2.816406 -1.859375 2.882812 -2.421875 2.625 C -2.554688 2.582031 -2.710938 2.492188 -2.890625 2.359375 C -3.066406 2.234375 -3.21875 2.101562 -3.34375 1.96875 C -3.65625 1.570312 -3.8125 1 -3.8125 0.25 C -3.8125 -0.488281 -3.65625 -1.238281 -3.34375 -2 C -3.039062 -2.769531 -2.648438 -3.375 -2.171875 -3.8125 C -1.554688 -4.375 -0.613281 -4.59375 0.65625 -4.46875 C 1.707031 -4.332031 2.429688 -3.785156 2.828125 -2.828125 Z M 2.828125 -2.828125 "/></g></g></g></svg>